<svg xmlns="http://www.w3.org/2000/svg" viewBox="0 0 899.88 164.5"><defs><style>.cls-1{fill:#e1ad00;}.cls-2{fill:#fff;}</style></defs><title>Asset 2</title><g id="Layer_2" data-name="Layer 2"><g id="FLDSRC_ICON" data-name="FLDSRC ICON"><path class="cls-1" d="M21.66,82.15A90.1,90.1,0,0,1,64.57,5.46a79.37,79.37,0,0,0,0,153.38A89.83,89.83,0,0,1,21.66,82.15Z"/><path class="cls-1" d="M64.17,160.43a81,81,0,0,1,0-156.56l1.29,3a88.28,88.28,0,0,0,0,150.5ZM53.94,11A77.63,77.63,0,0,0,54,153.38a90.9,90.9,0,0,1-34-71.23A90.42,90.42,0,0,1,53.94,11Z"/><path class="cls-1" d="M82.25,164.5A82.25,82.25,0,1,1,164.5,82.25,82.35,82.35,0,0,1,82.25,164.5Zm0-157.94A75.7,75.7,0,1,0,158,82.25,75.8,75.8,0,0,0,82.25,6.56Z"/><path class="cls-2" d="M202.68,22.09v57.8h-8.1V15.39h14.1l59.1,56.4V15.39h8.1v64.5h-10.8ZM322.88,14h24.3a71.64,71.64,0,0,1,12.4.9,27,27,0,0,1,8.3,2.7,12.43,12.43,0,0,1,5,4.6,21.07,21.07,0,0,1,2.6,6.5,42,42,0,0,1,1,8.4c.1,3.1.1,6.6.1,10.4h0c0,3.8,0,7.3-.1,10.4a41.16,41.16,0,0,1-1,8.4,18.09,18.09,0,0,1-2.6,6.5,14,14,0,0,1-5,4.6,27.9,27.9,0,0,1-8.3,2.7,72.45,72.45,0,0,1-12.4.9h-24.3a71.64,71.64,0,0,1-12.4-.9,27,27,0,0,1-8.3-2.7,13.43,13.43,0,0,1-5.1-4.6,18.86,18.86,0,0,1-2.6-6.5,42.41,42.41,0,0,1-.9-8.4c-.1-3.1-.1-6.6-.1-10.4h0c0-3.8,0-7.3.1-10.4a50.29,50.29,0,0,1,.9-8.4,20.11,20.11,0,0,1,2.6-6.5,14.29,14.29,0,0,1,5.1-4.6,27.9,27.9,0,0,1,8.3-2.7,82.16,82.16,0,0,1,12.4-.9Zm0,60.5h24.3q5.4,0,9-.3a19.13,19.13,0,0,0,6.1-1.3,8.88,8.88,0,0,0,3.7-2.8,11.77,11.77,0,0,0,1.9-4.8,46.33,46.33,0,0,0,.7-7.3c.1-2.9.1-6.4.1-10.4h0c0-4,0-7.5-.1-10.4a46.33,46.33,0,0,0-.7-7.3,11.77,11.77,0,0,0-1.9-4.8,8.88,8.88,0,0,0-3.7-2.8,22.31,22.31,0,0,0-6.1-1.3q-3.75-.3-9-.3h-24.3q-5.4,0-9,.3a19.13,19.13,0,0,0-6.1,1.3,8.88,8.88,0,0,0-3.7,2.8,11.77,11.77,0,0,0-1.9,4.8,46.33,46.33,0,0,0-.7,7.3c-.1,2.9-.1,6.4-.1,10.4h0c0,4,0,7.5.1,10.4a46.33,46.33,0,0,0,.7,7.3,11.77,11.77,0,0,0,1.9,4.8,8.88,8.88,0,0,0,3.7,2.8,22.31,22.31,0,0,0,6.1,1.3q3.6.3,9,.3Zm106.1,0,30.9-59.1h9.4l-34.9,64.5h-10.8l-34.9-64.5h9.4Zm106.3,5.4-8.1-14.8h-51l-8.1,14.8h-9.4l37.6-64.5H507l37.6,64.5Zm-55.1-21.5h43l-21.5-37.6Zm138.3,21.5h-59.1V15.39h8.1v57.8h51Zm81.9-64.5h8.1v32.2c0,3.8-.1,7.3-.2,10.4a41.16,41.16,0,0,1-1,8.4,18.09,18.09,0,0,1-2.6,6.5,14.83,14.83,0,0,1-5,4.6,27.9,27.9,0,0,1-8.3,2.7,72.89,72.89,0,0,1-12.5.9H660a71.64,71.64,0,0,1-12.4-.9,26.08,26.08,0,0,1-8.3-2.7,13.43,13.43,0,0,1-5.1-4.6,18.86,18.86,0,0,1-2.6-6.5,36.06,36.06,0,0,1-.9-8.4c-.1-3.1-.1-6.6-.1-10.4h0V15.39h8.1v32.2c0,4,0,7.5.1,10.4a46.33,46.33,0,0,0,.7,7.3,11.77,11.77,0,0,0,1.9,4.8,8.88,8.88,0,0,0,3.7,2.8,22.31,22.31,0,0,0,6.1,1.3c2.5.2,5.5.3,9.1.3H679q5.4,0,9-.3a19.13,19.13,0,0,0,6.1-1.3,8.88,8.88,0,0,0,3.7-2.8,11.77,11.77,0,0,0,1.9-4.8,46.33,46.33,0,0,0,.7-7.3c.1-2.9.1-6.4.1-10.4h0Zm29.6,6.7v57.8h-8V15.39h14.1l59.1,56.4V15.39h8.1v64.5h-10.8ZM846.18,14h24.3a71.64,71.64,0,0,1,12.4.9,27,27,0,0,1,8.3,2.7,12.43,12.43,0,0,1,5,4.6,21.07,21.07,0,0,1,2.6,6.5,42,42,0,0,1,1,8.4c.1,3.1.1,6.6.1,10.4h0c0,3.8,0,7.3-.1,10.4a41.16,41.16,0,0,1-1,8.4,18.09,18.09,0,0,1-2.6,6.5,14,14,0,0,1-5,4.6,27.9,27.9,0,0,1-8.3,2.7,72.45,72.45,0,0,1-12.4.9h-24.3a71.64,71.64,0,0,1-12.4-.9,27,27,0,0,1-8.3-2.7,13.43,13.43,0,0,1-5.1-4.6,18.86,18.86,0,0,1-2.6-6.5,42.41,42.41,0,0,1-.9-8.4c-.1-3.1-.1-6.6-.1-10.4h0c0-3.8,0-7.3.1-10.4a50.29,50.29,0,0,1,.9-8.4,20.11,20.11,0,0,1,2.6-6.5,14.29,14.29,0,0,1,5.1-4.6,27.9,27.9,0,0,1,8.3-2.7,84.3,84.3,0,0,1,12.4-.9Zm0,60.5h24.3q5.4,0,9-.3a19.13,19.13,0,0,0,6.1-1.3,8.88,8.88,0,0,0,3.7-2.8,11.77,11.77,0,0,0,1.9-4.8,46.33,46.33,0,0,0,.7-7.3c.1-2.9.1-6.4.1-10.4h0c0-4,0-7.5-.1-10.4a46.33,46.33,0,0,0-.7-7.3,11.77,11.77,0,0,0-1.9-4.8,8.88,8.88,0,0,0-3.7-2.8,22.31,22.31,0,0,0-6.1-1.3q-3.75-.3-9-.3h-24.3q-5.4,0-9,.3a19.13,19.13,0,0,0-6.1,1.3,8.88,8.88,0,0,0-3.7,2.8,11.77,11.77,0,0,0-1.9,4.8,46.33,46.33,0,0,0-.7,7.3c-.1,2.9-.1,6.4-.1,10.4h0c0,4,0,7.5.1,10.4a46.33,46.33,0,0,0,.7,7.3,11.77,11.77,0,0,0,1.9,4.8,8.88,8.88,0,0,0,3.7,2.8,22.31,22.31,0,0,0,6.1,1.3q3.6.3,9,.3Z"/><path class="cls-2" d="M220.68,150h-26.1v-38.5h3.8v35.2h22.3Zm9.3-3.3h22.1v3.4h-25.9v-38.5h25.4V115H230v13.9h18.8v3.2H230Zm25.1,3.3,16.1-38.5h3.2l16,38.5h-4l-5-12.1h-17.3l-4.9,12.1Zm9.8-15h15.6l-7.8-19Zm44.2,15H296v-38.5h13.1a20.19,20.19,0,0,1,8.1,1.5,16.06,16.06,0,0,1,5.7,4.1,16.79,16.79,0,0,1,3.5,6.1,22.68,22.68,0,0,1,1.2,7.5h0a21.83,21.83,0,0,1-1.3,7.9,17.82,17.82,0,0,1-3.7,6.1,16.49,16.49,0,0,1-5.8,3.9,19.53,19.53,0,0,1-7.7,1.4Zm14.6-19.3h0a18.69,18.69,0,0,0-1-6.4,13.16,13.16,0,0,0-2.9-5,12.91,12.91,0,0,0-4.6-3.3,15.24,15.24,0,0,0-6.2-1.2h-9.3v31.8H309a15.39,15.39,0,0,0,6.3-1.2,13.15,13.15,0,0,0,4.6-3.4,14.4,14.4,0,0,0,2.8-5A18.11,18.11,0,0,0,323.68,130.69Zm14.9,19.3h-3.8v-38.5h3.8Zm38.6,0-25.1-31.5V150h-3.8v-38.5h2.9l25.5,32.1v-32h3.8v38.5h-3.3Zm40.8,0v-5.7c-3.6,4-7.7,5.9-12.4,5.9h0a15.91,15.91,0,0,1-7.2-1.7,17.77,17.77,0,0,1-5.7-4.5,22.54,22.54,0,0,1-3.8-6.3,19.63,19.63,0,0,1-1.4-7.2h0a20.23,20.23,0,0,1,1.3-7.4,19.29,19.29,0,0,1,3.7-6.2,18.64,18.64,0,0,1,5.7-4.3,15.42,15.42,0,0,1,7.1-1.6h0a21.21,21.21,0,0,1,5.2.6,15.31,15.31,0,0,1,4.1,1.7,10.09,10.09,0,0,1,3.1,2.7,11.05,11.05,0,0,1,2.2,3.4h0l-2.9,1.9a12,12,0,0,0-5-5.2,14.11,14.11,0,0,0-6.9-1.7h0a12.43,12.43,0,0,0-5.8,1.4,13.94,13.94,0,0,0-4.4,3.6,17.28,17.28,0,0,0-2.8,5.2,19.86,19.86,0,0,0-1,6h0a18.39,18.39,0,0,0,1.1,6.2,16.61,16.61,0,0,0,3.1,5.1,14.42,14.42,0,0,0,4.6,3.5,12.53,12.53,0,0,0,5.7,1.3h0a12.83,12.83,0,0,0,6.3-1.6,19.68,19.68,0,0,0,5.8-4.9h0v-6.4h-8.6v-2.9h11.7v19H418Zm28.7-3.3h22.1v3.4h-25.9v-38.5h25.4V115h-21.6v13.9h18.8v3.2h-18.8ZM489,150H476v-38.5h13a20.19,20.19,0,0,1,8.1,1.5,16.06,16.06,0,0,1,5.7,4.1,16.79,16.79,0,0,1,3.5,6.1,22.68,22.68,0,0,1,1.2,7.5h0a21.83,21.83,0,0,1-1.3,7.9,17.82,17.82,0,0,1-3.7,6.1,16.49,16.49,0,0,1-5.8,3.9A19.21,19.21,0,0,1,489,150Zm14.7-19.3h0a18.69,18.69,0,0,0-1-6.4,13.16,13.16,0,0,0-2.9-5,12.91,12.91,0,0,0-4.6-3.3,15.24,15.24,0,0,0-6.2-1.2h-9.3v31.8H489a15.39,15.39,0,0,0,6.3-1.2,13.15,13.15,0,0,0,4.6-3.4,14.4,14.4,0,0,0,2.8-5A18.11,18.11,0,0,0,503.68,130.69Zm38.9,19.3v-5.7c-3.6,4-7.7,5.9-12.4,5.9h0a15.91,15.91,0,0,1-7.2-1.7,17.77,17.77,0,0,1-5.7-4.5,22.54,22.54,0,0,1-3.8-6.3,19.63,19.63,0,0,1-1.4-7.2h0a20.23,20.23,0,0,1,1.3-7.4,19.29,19.29,0,0,1,3.7-6.2,18.64,18.64,0,0,1,5.7-4.3,15.42,15.42,0,0,1,7.1-1.6h0a21.21,21.21,0,0,1,5.2.6,15.31,15.31,0,0,1,4.1,1.7,10.09,10.09,0,0,1,3.1,2.7,11.05,11.05,0,0,1,2.2,3.4h0l-2.9,1.9a12,12,0,0,0-5-5.2,14.11,14.11,0,0,0-6.9-1.7h0a12.43,12.43,0,0,0-5.8,1.4,13.94,13.94,0,0,0-4.4,3.6,17.28,17.28,0,0,0-2.8,5.2,19.86,19.86,0,0,0-1,6h0a18.39,18.39,0,0,0,1.1,6.2,16.61,16.61,0,0,0,3.1,5.1,14.42,14.42,0,0,0,4.6,3.5,12.53,12.53,0,0,0,5.7,1.3h0a12.83,12.83,0,0,0,6.3-1.6,19.68,19.68,0,0,0,5.8-4.9h0v-6.4H534v-2.9h11.7v19h-3.1Zm14.8-3.3h22.1v3.4h-25.9v-38.5H579V115h-21.6v13.9h18.8v3.2h-18.8Zm67.5-31-1.8,3a12.68,12.68,0,0,0-4.3-3,17.13,17.13,0,0,0-6.2-1.1h0c-3.4,0-5.9.6-7.4,1.9a6.24,6.24,0,0,0-2.3,5.2h0a5.81,5.81,0,0,0,.6,2.8,5.74,5.74,0,0,0,1.9,1.9,17.22,17.22,0,0,0,3.3,1.4q2,.6,4.8,1.2h0a33.34,33.34,0,0,1,5.5,1.5,13.68,13.68,0,0,1,4.2,2,7.48,7.48,0,0,1,2.6,3,9.14,9.14,0,0,1,.9,4.3h0a9.47,9.47,0,0,1-1,4.6,10.18,10.18,0,0,1-2.9,3.3,11.75,11.75,0,0,1-4.4,1.9,24.66,24.66,0,0,1-5.6.6h0a23.25,23.25,0,0,1-15.5-5.6h0l1.9-3.1a25.73,25.73,0,0,0,2.4,2.1,32.39,32.39,0,0,0,3.2,1.7,15.23,15.23,0,0,0,3.8,1.1,19.64,19.64,0,0,0,4.3.4h0a13.21,13.21,0,0,0,7.2-1.7,5.63,5.63,0,0,0,2.6-5h0a5.56,5.56,0,0,0-.7-3,6.37,6.37,0,0,0-2.2-2.1,20.35,20.35,0,0,0-3.6-1.6c-1.4-.4-3.1-.9-5-1.3h0c-2-.5-3.8-1-5.3-1.5a17.7,17.7,0,0,1-3.9-1.9,7.69,7.69,0,0,1-2.3-2.8,9.35,9.35,0,0,1-.8-3.9h0a10.58,10.58,0,0,1,1-4.8,9,9,0,0,1,2.9-3.5,14.36,14.36,0,0,1,4.3-2.1,19.27,19.27,0,0,1,5.5-.7h0a18.48,18.48,0,0,1,6.9,1.2,33.82,33.82,0,0,1,5.4,3.6Zm24.1,34.6h0a16.76,16.76,0,0,1-7.4-1.7,17.47,17.47,0,0,1-5.7-4.4,19.77,19.77,0,0,1-3.7-6.3,20.31,20.31,0,0,1-1.3-7.2h0a20.69,20.69,0,0,1,1.4-7.4,19.53,19.53,0,0,1,3.8-6.2,17.56,17.56,0,0,1,5.8-4.3,15.71,15.71,0,0,1,7.1-1.6h0a16.92,16.92,0,0,1,13.1,6.2,20.43,20.43,0,0,1,3.7,6.2,19.78,19.78,0,0,1,1.3,7.1h0a20.28,20.28,0,0,1-1.4,7.4,19.53,19.53,0,0,1-3.8,6.2,18.64,18.64,0,0,1-5.7,4.3A15,15,0,0,1,649,150.29Zm-14.3-19.5h0a17.18,17.18,0,0,0,1,6,18.83,18.83,0,0,0,2.9,5.2,15.54,15.54,0,0,0,4.5,3.6,12.43,12.43,0,0,0,5.8,1.4h0a12.84,12.84,0,0,0,5.9-1.4,13.55,13.55,0,0,0,4.5-3.7,15.33,15.33,0,0,0,2.8-5.2,17,17,0,0,0,1-5.9h0a17.18,17.18,0,0,0-1-6,18.26,18.26,0,0,0-2.9-5.1,15.54,15.54,0,0,0-4.5-3.6,12,12,0,0,0-5.7-1.3h0a12.84,12.84,0,0,0-5.9,1.4,13.55,13.55,0,0,0-4.5,3.7,19.38,19.38,0,0,0-3.9,10.9Zm65.6,19.2h-26.1v-38.5H678v35.2h22.3Zm18.8-3.1h0a12.1,12.1,0,0,0,6-1.4,10.13,10.13,0,0,0,3.8-3.6,14.32,14.32,0,0,0,2-5.1,28.56,28.56,0,0,0,.6-5.8h0v-19.4h3.8V131a29.42,29.42,0,0,1-.9,7.4,17.59,17.59,0,0,1-2.8,6.2,12.82,12.82,0,0,1-5,4.2,16.11,16.11,0,0,1-7.6,1.6h0a16.52,16.52,0,0,1-7.7-1.7,14,14,0,0,1-5-4.3,16.51,16.51,0,0,1-2.7-6.2,33.79,33.79,0,0,1-.8-7.2h0v-19.4h3.7V131a28.8,28.8,0,0,0,.6,5.9,16.46,16.46,0,0,0,2,5.1,10.93,10.93,0,0,0,3.8,3.6A14.9,14.9,0,0,0,719.08,146.89Zm52.7-35.4v3.4h-13.7v35.2h-3.8v-35.2h-13.7v-3.4Zm9.6,38.5h-3.8v-38.5h3.8Zm25.2.3h0a16.76,16.76,0,0,1-7.4-1.7,17.47,17.47,0,0,1-5.7-4.4,19.77,19.77,0,0,1-3.7-6.3,20.31,20.31,0,0,1-1.3-7.2h0a20.69,20.69,0,0,1,1.4-7.4,19.53,19.53,0,0,1,3.8-6.2,17.56,17.56,0,0,1,5.8-4.3,15.71,15.71,0,0,1,7.1-1.6h0a16.92,16.92,0,0,1,13.1,6.2,20.43,20.43,0,0,1,3.7,6.2,19.78,19.78,0,0,1,1.3,7.1h0a20.28,20.28,0,0,1-1.4,7.4,19.53,19.53,0,0,1-3.8,6.2,18.64,18.64,0,0,1-5.7,4.3A15.26,15.26,0,0,1,806.58,150.29Zm-14.3-19.5h0a17.18,17.18,0,0,0,1,6,18.83,18.83,0,0,0,2.9,5.2,15.54,15.54,0,0,0,4.5,3.6,12.43,12.43,0,0,0,5.8,1.4h0a12.84,12.84,0,0,0,5.9-1.4,13.55,13.55,0,0,0,4.5-3.7,15.33,15.33,0,0,0,2.8-5.2,17,17,0,0,0,1-5.9h0a17.18,17.18,0,0,0-1-6,18.26,18.26,0,0,0-2.9-5.1,15.54,15.54,0,0,0-4.5-3.6,12,12,0,0,0-5.7-1.3h0a12.84,12.84,0,0,0-5.9,1.4,13.55,13.55,0,0,0-4.5,3.7,19.38,19.38,0,0,0-3.9,10.9Zm68.5,19.2-25.1-31.5V150h-3.8v-38.5h2.9l25.5,32.1v-32h3.8v38.5h-3.3Zm37.3-34.3-1.8,3a12.68,12.68,0,0,0-4.3-3,17.13,17.13,0,0,0-6.2-1.1h0c-3.4,0-5.9.6-7.4,1.9a6.24,6.24,0,0,0-2.3,5.2h0a5.81,5.81,0,0,0,.6,2.8,5.74,5.74,0,0,0,1.9,1.9,17.22,17.22,0,0,0,3.3,1.4q1.95.6,4.8,1.2h0a33.34,33.34,0,0,1,5.5,1.5,13.68,13.68,0,0,1,4.2,2,7.48,7.48,0,0,1,2.6,3,9.14,9.14,0,0,1,.9,4.3h0a9.47,9.47,0,0,1-1,4.6,10.18,10.18,0,0,1-2.9,3.3,11.75,11.75,0,0,1-4.4,1.9,24.66,24.66,0,0,1-5.6.6h0a23.25,23.25,0,0,1-15.5-5.6h0l1.9-3.1a25.73,25.73,0,0,0,2.4,2.1,32.39,32.39,0,0,0,3.2,1.7,15.23,15.23,0,0,0,3.8,1.1,19.64,19.64,0,0,0,4.3.4h0a13.21,13.21,0,0,0,7.2-1.7,5.63,5.63,0,0,0,2.6-5h0a5.56,5.56,0,0,0-.7-3A6.37,6.37,0,0,0,893,135a20.35,20.35,0,0,0-3.6-1.6c-1.4-.4-3.1-.9-5-1.3h0c-2-.5-3.8-1-5.3-1.5a17.7,17.7,0,0,1-3.9-1.9,7.69,7.69,0,0,1-2.3-2.8,9.35,9.35,0,0,1-.8-3.9h0a10.58,10.58,0,0,1,1-4.8,9,9,0,0,1,2.9-3.5,14.36,14.36,0,0,1,4.3-2.1,19.27,19.27,0,0,1,5.5-.7h0a18.48,18.48,0,0,1,6.9,1.2,29.86,29.86,0,0,1,5.4,3.6Z"/></g></g></svg>