<svg id="FLDSRC_ICON" data-name="FLDSRC ICON" xmlns="http://www.w3.org/2000/svg" viewBox="0 0 900 164.59"><defs><style>.cls-1{fill:#e1ad00;}.cls-2{fill:#fff;}</style></defs><title>noBackground</title><path class="cls-1" d="M71.67,500a89.87,89.87,0,0,1,42.88-76.65,79.34,79.34,0,0,0,0,153.32A89.86,89.86,0,0,1,71.67,500Z" transform="translate(-50 -417.7)"/><path class="cls-1" d="M114.16,578.27a81,81,0,0,1,0-156.53l1.3,3a88.28,88.28,0,0,0,0,150.5ZM104,428.8a77.68,77.68,0,0,0,0,142.41,91.64,91.64,0,0,1,0-142.41Z" transform="translate(-50 -417.7)"/><path class="cls-1" d="M132.29,582.3a82.3,82.3,0,1,1,82.3-82.3A82.39,82.39,0,0,1,132.29,582.3Zm0-158A75.67,75.67,0,1,0,208,500,75.76,75.76,0,0,0,132.29,424.33Z" transform="translate(-50 -417.7)"/><path class="cls-2" d="M252.65,439.91v57.77h-8.06V433.2h14.15l59.12,56.42V433.2h8.06v64.48H315.16Zm116.2-8.06h24.28a71.43,71.43,0,0,1,12.44.91,26.19,26.19,0,0,1,8.33,2.73,13.62,13.62,0,0,1,5,4.58,20,20,0,0,1,2.58,6.51,46.3,46.3,0,0,1,1,8.45q.13,4.7.13,10.4h0q0,5.71-.13,10.42a46.18,46.18,0,0,1-1,8.44,19.8,19.8,0,0,1-2.58,6.51,13.72,13.72,0,0,1-5,4.59,26.7,26.7,0,0,1-8.33,2.73,72.43,72.43,0,0,1-12.44.91H368.85a72.43,72.43,0,0,1-12.44-.91,26.63,26.63,0,0,1-8.32-2.73A13.79,13.79,0,0,1,343,490.8a20.06,20.06,0,0,1-2.62-6.51,47.28,47.28,0,0,1-.94-8.44q-.12-4.71-.12-10.42h0q0-5.7.12-10.4a47.39,47.39,0,0,1,.94-8.45,20.24,20.24,0,0,1,2.62-6.51,13.68,13.68,0,0,1,5.06-4.58,26.12,26.12,0,0,1,8.32-2.73,71.43,71.43,0,0,1,12.44-.91Zm0,60.45h24.28q5.33,0,9-.3a21.73,21.73,0,0,0,6.07-1.28,8.2,8.2,0,0,0,3.69-2.78,12.12,12.12,0,0,0,1.89-4.79,42.15,42.15,0,0,0,.69-7.32q.11-4.35.1-10.4h0c0-4,0-7.49-.1-10.39a42.13,42.13,0,0,0-.69-7.31,12.06,12.06,0,0,0-1.89-4.79,8.24,8.24,0,0,0-3.67-2.78,21.23,21.23,0,0,0-6.05-1.28c-2.45-.2-5.47-.31-9-.31H368.85c-3.57,0-6.58.11-9,.31a21.46,21.46,0,0,0-6.07,1.28,8.2,8.2,0,0,0-3.69,2.78,12.06,12.06,0,0,0-1.89,4.79,43.25,43.25,0,0,0-.68,7.31c-.05,2.9-.08,6.37-.08,10.39h0q0,6,.1,10.4a44.21,44.21,0,0,0,.69,7.32,12.59,12.59,0,0,0,1.87,4.79,8.16,8.16,0,0,0,3.68,2.78,21.81,21.81,0,0,0,6.07,1.28q3.68.3,9,.3Zm102.15,0,30.9-59.1h9.41l-34.93,64.48H465.62L430.69,433.2h9.41Zm122.26,5.38-8.08-14.79h-51l-8.06,14.79h-9.41L554.3,433.2H565l37.61,64.48Zm-55.1-21.49h43l-21.49-37.62ZM672.5,497.68H613.4V433.2h8.06V491h51Zm77.94-64.48h8.09v32.23q0,5.71-.15,10.42a45.41,45.41,0,0,1-1,8.44,19.8,19.8,0,0,1-2.58,6.51,13.88,13.88,0,0,1-5,4.59,26.7,26.7,0,0,1-8.33,2.73A72.6,72.6,0,0,1,729,499H710.13a72.43,72.43,0,0,1-12.44-.91,26.65,26.65,0,0,1-8.35-2.73,14.11,14.11,0,0,1-5.06-4.59,19.6,19.6,0,0,1-2.59-6.51,44.62,44.62,0,0,1-1-8.44q-.13-4.71-.13-10.42h0V433.2h8.06v32.23q0,6,.12,10.4a42.15,42.15,0,0,0,.69,7.32,12.59,12.59,0,0,0,1.85,4.79,8.16,8.16,0,0,0,3.68,2.78,21.73,21.73,0,0,0,6.07,1.28c2.45.2,5.46.3,9,.3H729q5.34,0,9-.3a21.49,21.49,0,0,0,6.06-1.28,8.39,8.39,0,0,0,3.68-2.78,12.43,12.43,0,0,0,1.9-4.79,41.09,41.09,0,0,0,.7-7.32q.08-4.35.08-10.4h0ZM780,439.91v57.77H772V433.2h14.15l59.12,56.42V433.2h8.06v64.48H842.53Zm116.2-8.06H920.5a71.43,71.43,0,0,1,12.44.91,26.19,26.19,0,0,1,8.33,2.73,13.62,13.62,0,0,1,5,4.58,20,20,0,0,1,2.58,6.51,47.19,47.19,0,0,1,1,8.45q.14,4.7.13,10.4h0q0,5.71-.13,10.42a47.08,47.08,0,0,1-1,8.44,19.8,19.8,0,0,1-2.58,6.51,13.72,13.72,0,0,1-5,4.59,26.7,26.7,0,0,1-8.33,2.73,72.43,72.43,0,0,1-12.44.91H896.22a72.43,72.43,0,0,1-12.44-.91,26.7,26.7,0,0,1-8.33-2.73,14,14,0,0,1-5.06-4.59,19.83,19.83,0,0,1-2.61-6.51,46.37,46.37,0,0,1-.94-8.44q-.12-4.71-.12-10.42h0q0-5.7.12-10.4a46.49,46.49,0,0,1,.94-8.45,20,20,0,0,1,2.61-6.51,13.84,13.84,0,0,1,5.06-4.58,26.19,26.19,0,0,1,8.33-2.73,71.43,71.43,0,0,1,12.44-.91Zm0,60.45H920.5q5.32,0,9-.3a21.81,21.81,0,0,0,6.07-1.28,8.2,8.2,0,0,0,3.69-2.78,12.12,12.12,0,0,0,1.89-4.79,44.21,44.21,0,0,0,.69-7.32q.1-4.35.1-10.4h0c0-4,0-7.49-.1-10.39a44.19,44.19,0,0,0-.69-7.31,12.06,12.06,0,0,0-1.89-4.79,8.24,8.24,0,0,0-3.67-2.78,21.3,21.3,0,0,0-6.06-1.28c-2.45-.2-5.46-.31-9-.31H896.22c-3.57,0-6.58.11-9,.31a21.38,21.38,0,0,0-6.07,1.28,8.28,8.28,0,0,0-3.7,2.78,12.21,12.21,0,0,0-1.88,4.79,42.23,42.23,0,0,0-.68,7.31c-.05,2.9-.08,6.37-.08,10.39h0q0,6,.1,10.4a44.21,44.21,0,0,0,.69,7.32,12.43,12.43,0,0,0,1.87,4.79,8.16,8.16,0,0,0,3.68,2.78,21.73,21.73,0,0,0,6.07,1.28q3.67.3,9,.3Z" transform="translate(-50 -417.7)"/><path class="cls-2" d="M270.65,567.84H244.59V529.3h3.8v35.17h22.26Zm9.39-3.37h22.07v3.37H276.24V529.3h25.4v3.37H280v13.88h18.81v3.22H280Zm25.07,3.37,16.13-38.54h3.18l16,38.54h-4l-5-12.06H314.11l-4.92,12.06Zm9.81-15h15.63l-7.75-19Zm44.15,15H346V529.3h13.07a19.92,19.92,0,0,1,8.06,1.51,16,16,0,0,1,5.74,4.15,17.17,17.17,0,0,1,3.49,6.09,23.63,23.63,0,0,1,1.16,7.48h0a22.78,22.78,0,0,1-1.32,8,17.52,17.52,0,0,1-3.68,6.09,16.75,16.75,0,0,1-5.82,3.88,20,20,0,0,1-7.63,1.39Zm14.65-19.31h0a20.07,20.07,0,0,0-1-6.4,13.82,13.82,0,0,0-2.87-5,12.44,12.44,0,0,0-4.57-3.29,15.64,15.64,0,0,0-6.24-1.17H349.8v31.8h9.27a15.73,15.73,0,0,0,6.32-1.2,12.93,12.93,0,0,0,4.57-3.38,14.07,14.07,0,0,0,2.79-5A19.75,19.75,0,0,0,373.72,548.53Zm14.89,19.31h-3.8V529.3h3.8Zm38.59,0-25.13-31.48v31.48h-3.8V529.3h2.91l25.52,32.07v-32h3.8v38.5Zm40.82,0v-5.66q-5.38,5.94-12.37,5.93h0a15.76,15.76,0,0,1-7.21-1.66,19.29,19.29,0,0,1-5.7-4.46,21.5,21.5,0,0,1-3.76-6.28,19.76,19.76,0,0,1-1.36-7.18h0a20.94,20.94,0,0,1,1.32-7.4,19.35,19.35,0,0,1,3.72-6.21,19,19,0,0,1,5.66-4.3,16,16,0,0,1,7.1-1.59h0a20.16,20.16,0,0,1,5.16.62,15.37,15.37,0,0,1,4.15,1.74,13.38,13.38,0,0,1,3.14,2.68,14.58,14.58,0,0,1,2.25,3.37h0l-2.91,1.94a12.3,12.3,0,0,0-5-5.23,13.67,13.67,0,0,0-6.86-1.71h0a12.12,12.12,0,0,0-5.78,1.36,13.91,13.91,0,0,0-4.42,3.6,16.47,16.47,0,0,0-2.79,5.16,19.05,19.05,0,0,0-1,6h0a17.63,17.63,0,0,0,1.09,6.2,16.47,16.47,0,0,0,3.1,5.12,14.21,14.21,0,0,0,4.58,3.49,12.6,12.6,0,0,0,5.73,1.32h0a13.69,13.69,0,0,0,6.32-1.55,19.08,19.08,0,0,0,5.78-4.92h0v-6.4h-8.57v-3H471.2v19Zm28.67-3.37h22.07v3.37H492.89V529.3h25.4v3.37h-21.6v13.88H515.5v3.22H496.69ZM539,567.84H526V529.3H539a19.88,19.88,0,0,1,8.06,1.51,15.9,15.9,0,0,1,5.74,4.15,17,17,0,0,1,3.49,6.09,23.35,23.35,0,0,1,1.17,7.48h0a22.78,22.78,0,0,1-1.32,8,17.55,17.55,0,0,1-3.69,6.09,16.61,16.61,0,0,1-5.81,3.88,20,20,0,0,1-7.64,1.39Zm14.66-19.31h0a20.36,20.36,0,0,0-1-6.4,14.12,14.12,0,0,0-2.87-5,12.48,12.48,0,0,0-4.58-3.29,15.64,15.64,0,0,0-6.24-1.17h-9.27v31.8H539a15.69,15.69,0,0,0,6.32-1.2,12.93,12.93,0,0,0,4.57-3.38,13.94,13.94,0,0,0,2.8-5A20,20,0,0,0,553.68,548.53Zm38.93,19.31v-5.66q-5.4,5.94-12.37,5.93h0a15.8,15.8,0,0,1-7.22-1.66,19.55,19.55,0,0,1-5.7-4.46,21.72,21.72,0,0,1-3.76-6.28,19.75,19.75,0,0,1-1.35-7.18h0a21.16,21.16,0,0,1,1.31-7.4,19.2,19.2,0,0,1,3.73-6.21,18.84,18.84,0,0,1,5.66-4.3A15.92,15.92,0,0,1,580,529h0a20.16,20.16,0,0,1,5.16.62,15.37,15.37,0,0,1,4.15,1.74,13.38,13.38,0,0,1,3.14,2.68,14.27,14.27,0,0,1,2.25,3.37h0l-2.91,1.94a12.34,12.34,0,0,0-5-5.23,13.73,13.73,0,0,0-6.87-1.71h0a12,12,0,0,0-5.77,1.36,13.8,13.8,0,0,0-4.42,3.6,16.07,16.07,0,0,0-2.79,5.16,18.77,18.77,0,0,0-1,6h0a17.85,17.85,0,0,0,1.08,6.2,16.66,16.66,0,0,0,3.1,5.12,14.32,14.32,0,0,0,4.58,3.49,12.64,12.64,0,0,0,5.74,1.32h0a13.72,13.72,0,0,0,6.32-1.55,19.32,19.32,0,0,0,5.78-4.92h0v-6.4H584v-3h11.75v19Zm14.82-3.37H629.5v3.37H603.63V529.3H629v3.37h-21.6v13.88h18.81v3.22H607.43Zm67.46-31-1.83,3a12,12,0,0,0-4.34-3,16.09,16.09,0,0,0-6.2-1.13h0q-5.13,0-7.45,1.94a6.39,6.39,0,0,0-2.32,5.24h0a5.75,5.75,0,0,0,.62,2.83,5.32,5.32,0,0,0,1.93,1.93,12.66,12.66,0,0,0,3.34,1.4c1.34.41,3,.81,4.81,1.2h0a50.36,50.36,0,0,1,5.54,1.48,16.46,16.46,0,0,1,4.23,2,8.22,8.22,0,0,1,2.63,3,8.89,8.89,0,0,1,.94,4.34h0a10,10,0,0,1-1,4.61,9.45,9.45,0,0,1-2.91,3.26,12.87,12.87,0,0,1-4.38,1.9,23.4,23.4,0,0,1-5.59.62h0a23,23,0,0,1-15.47-5.58h0l1.9-3.1a15.74,15.74,0,0,0,2.45,2.09,19.56,19.56,0,0,0,3.21,1.71,21.86,21.86,0,0,0,8,1.55h0a13.07,13.07,0,0,0,7.17-1.67,5.57,5.57,0,0,0,2.6-5h0a5.57,5.57,0,0,0-.74-3,6.29,6.29,0,0,0-2.21-2.13,16.18,16.18,0,0,0-3.64-1.55q-2.18-.66-5-1.28h0q-3-.74-5.31-1.47a15.09,15.09,0,0,1-3.88-1.9,7.73,7.73,0,0,1-2.33-2.76,8.54,8.54,0,0,1-.81-3.91h0a10.72,10.72,0,0,1,1-4.77,9.35,9.35,0,0,1,2.87-3.49,13.37,13.37,0,0,1,4.34-2.09,19,19,0,0,1,5.51-.74h0a19.27,19.27,0,0,1,6.9,1.16,18.48,18.48,0,0,1,5.43,3.3ZM699,568.11h0a16.25,16.25,0,0,1-7.37-1.66,17.71,17.71,0,0,1-5.7-4.39,20.13,20.13,0,0,1-3.72-6.28,20.8,20.8,0,0,1-1.28-7.21h0A20.64,20.64,0,0,1,686.12,535a18.74,18.74,0,0,1,5.78-4.34A16.22,16.22,0,0,1,699,529h0a16,16,0,0,1,7.37,1.7,18.46,18.46,0,0,1,5.7,4.5,20.41,20.41,0,0,1,5,13.38h0a20.67,20.67,0,0,1-5.15,13.61,19.18,19.18,0,0,1-5.74,4.3A16.46,16.46,0,0,1,699,568.11Zm-14.27-19.54h0a18.41,18.41,0,0,0,1,6,16.64,16.64,0,0,0,2.95,5.16,14.23,14.23,0,0,0,4.5,3.56A12.31,12.31,0,0,0,699,564.7h0a12.43,12.43,0,0,0,5.93-1.43,14.37,14.37,0,0,0,4.5-3.69,17.81,17.81,0,0,0,3.83-11h0a17.7,17.7,0,0,0-1-6.05,16.22,16.22,0,0,0-3-5.12,14.19,14.19,0,0,0-4.54-3.56,12.45,12.45,0,0,0-5.73-1.32h0a12.88,12.88,0,0,0-5.94,1.36,14.42,14.42,0,0,0-4.49,3.68,17.79,17.79,0,0,0-3.84,11Zm65.58,19.27H724.25V529.3h3.8v35.17h22.26Zm18.83-3.14h0a11.91,11.91,0,0,0,6.05-1.39,11.21,11.21,0,0,0,3.84-3.65,14.94,14.94,0,0,0,2-5.12,29,29,0,0,0,.58-5.81h0V529.3h3.8v19.43a29.48,29.48,0,0,1-.89,7.4,17.16,17.16,0,0,1-2.79,6.17,13.3,13.3,0,0,1-5,4.22,16.44,16.44,0,0,1-7.56,1.59h0a16.21,16.21,0,0,1-7.68-1.66,13.9,13.9,0,0,1-5-4.35,17.75,17.75,0,0,1-2.72-6.2,31.65,31.65,0,0,1-.81-7.17h0V529.3h3.72v19.43a28.2,28.2,0,0,0,.62,5.93,14.59,14.59,0,0,0,2,5.08,10.71,10.71,0,0,0,3.84,3.6A11.8,11.8,0,0,0,769.14,564.7Zm52.69-35.4v3.37H808.11v35.17h-3.8V532.67H790.58V529.3Zm9.58,38.54h-3.8V529.3h3.8Zm25.17.27h0a16.24,16.24,0,0,1-7.36-1.66,17.49,17.49,0,0,1-5.7-4.39,20,20,0,0,1-3.73-6.28,21,21,0,0,1-1.28-7.21h0a20.72,20.72,0,0,1,5.2-13.61,18.74,18.74,0,0,1,5.78-4.34,16.19,16.19,0,0,1,7.13-1.59h0a16,16,0,0,1,7.37,1.7,18.46,18.46,0,0,1,5.7,4.5,20.55,20.55,0,0,1,5,13.38h0a20.67,20.67,0,0,1-5.15,13.61,19.3,19.3,0,0,1-5.74,4.3A16.5,16.5,0,0,1,856.58,568.11Zm-14.27-19.54h0a18.42,18.42,0,0,0,1,6,16.64,16.64,0,0,0,2.95,5.16,14.23,14.23,0,0,0,4.5,3.56,12.29,12.29,0,0,0,5.81,1.36h0a12.45,12.45,0,0,0,5.94-1.43,14.45,14.45,0,0,0,4.49-3.69,17.9,17.9,0,0,0,3.84-11h0a17.94,17.94,0,0,0-1-6.05,16.22,16.22,0,0,0-2.95-5.12,14.19,14.19,0,0,0-4.54-3.56,12.47,12.47,0,0,0-5.74-1.32h0a12.87,12.87,0,0,0-5.93,1.36,14.34,14.34,0,0,0-4.5,3.68,18,18,0,0,0-3.84,11Zm68.46,19.27-25.13-31.48v31.48h-3.8V529.3h2.91l25.51,32.07v-32h3.8v38.5Zm37.33-34.35-1.82,3a12.15,12.15,0,0,0-4.35-3,16,16,0,0,0-6.2-1.13h0q-5.12,0-7.44,1.94a6.4,6.4,0,0,0-2.33,5.24h0a5.87,5.87,0,0,0,.62,2.83,5.27,5.27,0,0,0,1.94,1.93,12.44,12.44,0,0,0,3.33,1.4q2,.62,4.81,1.2h0a50,50,0,0,1,5.55,1.48,16.39,16.39,0,0,1,4.22,2,8.25,8.25,0,0,1,2.64,3,9,9,0,0,1,.93,4.34h0a10,10,0,0,1-1,4.61,9.45,9.45,0,0,1-2.91,3.26,12.7,12.7,0,0,1-4.38,1.9,23.32,23.32,0,0,1-5.58.62h0a23,23,0,0,1-15.47-5.58h0l1.9-3.1a15.19,15.19,0,0,0,2.44,2.09,19.67,19.67,0,0,0,3.22,1.71,20,20,0,0,0,3.76,1.12,20.18,20.18,0,0,0,4.26.43h0a13.13,13.13,0,0,0,7.18-1.67,5.59,5.59,0,0,0,2.6-5h0a5.66,5.66,0,0,0-.74-3,6.38,6.38,0,0,0-2.21-2.13,16.27,16.27,0,0,0-3.65-1.55q-2.16-.66-5-1.28h0q-3-.74-5.31-1.47a15.25,15.25,0,0,1-3.88-1.9,7.6,7.6,0,0,1-2.32-2.76,8.41,8.41,0,0,1-.82-3.91h0a10.86,10.86,0,0,1,1-4.77,9.35,9.35,0,0,1,2.87-3.49,13.47,13.47,0,0,1,4.34-2.09,19,19,0,0,1,5.51-.74h0a19.23,19.23,0,0,1,6.9,1.16,18.48,18.48,0,0,1,5.43,3.3Z" transform="translate(-50 -417.7)"/></svg>